<?xml version="1.0" encoding="UTF-8"?>
<svg xmlns="http://www.w3.org/2000/svg" xmlns:xlink="http://www.w3.org/1999/xlink" width="275px" height="115px" viewBox="0 0 275 115">
  <!-- Generator: Sketch 53 (72520) - https://sketchapp.com -->
  <title>Group 56</title>
  <desc>Created with Sketch.</desc>
  <defs>
    <polygon id="path-1" points="0.5385 0.3354 27.8305 0.3354 27.8305 19 0.5385 19"></polygon>
  </defs>
  <g id="Symbols" stroke="none" stroke-width="1" fill="none" fill-rule="evenodd">
    <g id="Bridgewater-Bank-Full-Color-Mark">
      <g id="Group-56">
        <path d="M191.2334,41.7923 C191.2574,41.3823 191.2874,40.9713 191.2874,40.5543 C191.2874,39.6943 191.2124,38.8433 191.0914,38.0023 C172.6714,35.8513 153.4274,34.7033 133.6254,34.7033 C114.7724,34.7033 96.4214,35.7323 78.8114,37.6903 C78.6624,38.6343 78.5754,39.5893 78.5754,40.5543 C78.5754,40.7983 78.5984,41.0493 78.6064,41.2973 C95.9134,38.0723 114.4044,36.3243 133.6254,36.3243 C153.8054,36.3243 173.1854,38.2523 191.2334,41.7923" id="Fill-1" fill="#9B908E"></path>
        <path d="M191.2334,41.7923 C191.2574,41.3823 191.2874,40.9713 191.2874,40.5543 C191.2874,39.6943 191.2124,38.8433 191.0914,38.0023 C172.6714,35.8513 153.4274,34.7033 133.6254,34.7033 C114.7724,34.7033 96.4214,35.7323 78.8114,37.6903 C78.6624,38.6343 78.5754,39.5893 78.5754,40.5543 C78.5754,40.7983 78.5984,41.0493 78.6064,41.2973 C95.9134,38.0723 114.4044,36.3243 133.6254,36.3243 C153.8054,36.3243 173.1854,38.2523 191.2334,41.7923" id="Fill-3" fill="#9E8782"></path>
        <path d="M129.0952,0.0003 C130.2182,3.2973 130.9842,6.7473 131.4292,10.3333 C132.6292,10.3063 133.8202,10.2693 135.0322,10.2693 C136.2532,10.2693 137.4542,10.3063 138.6602,10.3333 C139.0842,6.7503 139.8232,3.2983 140.9182,0.0003 L129.0952,0.0003 Z" id="Fill-5" fill="#6D4D53"></path>
        <path d="M201.6641,13.5794 C202.7871,16.8754 203.5541,20.3284 204.0011,23.9104 C205.1981,23.8854 206.3911,23.8474 207.6011,23.8474 C208.8211,23.8474 210.0241,23.8854 211.2281,23.9104 C211.6551,20.3294 212.3941,16.8764 213.4881,13.5794 L201.6641,13.5794 Z" id="Fill-7" fill="#6D4D53"></path>
        <path d="M207.6387,25.0589 C206.2617,25.0589 204.6887,25.1009 203.3267,25.1319 C203.1917,24.0359 202.8417,22.9529 202.6507,21.8819 C190.4587,11.1539 168.0117,3.8389 141.2367,2.8189 C140.7347,4.7799 140.3227,6.7799 140.0017,8.8209 C167.2927,10.1749 188.9177,22.5549 191.0917,38.0019 C197.9097,38.7959 204.6077,39.7419 211.1877,40.8059 L211.1877,25.1219 C210.0077,25.0929 208.8327,25.0589 207.6387,25.0589" id="Fill-9" fill="#6D4D53"></path>
        <path d="M56.3804,13.578 C57.4744,16.875 58.2134,20.328 58.6394,23.91 C59.8454,23.884 61.0464,23.845 62.2664,23.845 C63.4784,23.845 64.6704,23.884 65.8684,23.91 C66.3154,20.328 67.0814,16.875 68.2044,13.578 L56.3804,13.578 Z" id="Fill-11" fill="#6D4D53"></path>
        <path d="M58.6817,25.1043 L58.6817,40.5403 C65.2617,39.4743 71.9597,38.5303 78.7767,37.7363 C80.9517,22.2893 102.7447,9.8953 130.0347,8.5393 C129.7157,6.5003 129.2067,4.5503 128.7067,2.5873 C101.9307,3.6083 79.5677,10.8613 67.3767,21.5893 C67.1867,22.6623 66.8747,24.0203 66.7397,25.1173 C65.3787,25.0863 63.6067,25.0413 62.2307,25.0413 C61.0357,25.0413 59.8597,25.0763 58.6817,25.1043" id="Fill-13" fill="#6D4D53"></path>
        <path d="M62.3145,55.6585 C61.0965,55.6585 59.8945,55.6215 58.6875,55.5955 C58.2625,59.1775 57.5225,62.5515 56.4305,65.8495 L68.2545,65.8495 C67.1315,62.5515 66.3645,59.1775 65.9185,55.5955 C64.7195,55.6215 63.5285,55.6585 62.3145,55.6585" id="Fill-15" fill="#9E8782"></path>
        <path d="M78.6866,42.0873 C78.6576,42.1003 78.6146,41.4933 78.6056,41.2973 C71.6946,42.5873 65.1836,44.1083 58.6776,45.8523 C58.7286,46.0043 58.6776,54.4333 58.6776,54.4333 L58.8546,54.4623 C60.0196,54.4913 61.1656,54.4813 62.3456,54.4813 C63.7216,54.4813 65.3046,54.4913 66.6656,54.4623 C66.8016,55.5573 67.1526,56.8363 67.3436,57.9063 C79.5346,68.6353 102.0596,75.9593 128.8356,76.9793 C129.3366,75.0143 129.7476,73.0133 130.0676,70.9773 C102.7776,69.6193 80.8626,57.5353 78.6866,42.0873" id="Fill-17" fill="#9E8782"></path>
        <path d="M134.9951,69.5819 C133.7741,69.5819 132.5741,69.5439 131.3661,69.5199 C130.9411,73.1019 130.2011,76.5529 129.1091,79.8509 L140.9331,79.8509 C139.8101,76.5539 139.0451,73.1029 138.5981,69.5199 C137.3991,69.5439 136.2071,69.5819 134.9951,69.5819" id="Fill-19" fill="#9E8782"></path>
        <path d="M203.293,54.4393 C203.293,54.4393 205.127,54.4963 207.205,54.4963 C209.283,54.4963 211.223,54.4393 211.223,54.4393 L211.253,46.5783 C204.824,44.7923 198.074,43.1353 191.233,41.7923 C189.061,57.2393 167.315,69.9313 140.023,71.2893 C140.343,73.3273 140.716,75.2873 141.216,77.2503 C167.99,76.2313 190.398,68.7263 202.59,57.9973 C202.775,56.9463 203.159,55.5123 203.293,54.4393" id="Fill-21" fill="#9E8782"></path>
        <path d="M211.1885,55.5897 C209.9845,55.6167 208.7825,55.6527 207.5615,55.6527 C206.3505,55.6527 205.1585,55.6167 203.9605,55.5897 C203.5135,59.1727 202.7475,62.5767 201.6245,65.8757 L213.4485,65.8757 C212.3535,62.5767 211.6145,59.1707 211.1885,55.5897" id="Fill-23" fill="#9E8782"></path>
        <path d="M4.0484,106.2738 C4.0484,108.1408 4.0484,111.1468 4.0724,111.5098 C4.1454,112.6978 4.1454,113.0378 4.8964,113.4008 C5.5514,113.7148 6.5934,113.7638 7.0294,113.7638 C8.3384,113.7638 10.4474,113.0608 10.4474,110.3228 C10.4474,108.8678 9.9624,106.7578 8.0964,105.4748 C7.2724,104.9168 6.6664,104.8438 6.0844,104.7718 C5.7694,104.7228 4.5574,104.7228 4.1944,104.7228 C4.0964,104.7228 4.0484,104.7718 4.0484,104.8928 L4.0484,106.2738 Z M4.0484,103.7058 C4.0484,103.8758 4.0964,103.9218 4.2174,103.9708 C4.3634,103.9968 4.7994,104.0688 5.6964,104.0688 C7.0534,104.0688 7.3934,104.0198 7.9024,103.4378 C8.4114,102.8558 8.7744,101.9848 8.7744,100.9908 C8.7744,98.9788 7.8784,96.8208 5.5024,96.8208 C5.2354,96.8208 4.7264,96.8458 4.3394,96.9418 C4.1214,96.9908 4.0484,97.0628 4.0484,97.2098 L4.0484,103.7058 Z M2.1094,103.1718 C2.1094,99.3908 2.1094,98.7118 2.0604,97.9358 C2.0124,97.1118 1.8184,96.7248 1.0184,96.5548 C0.8244,96.5058 0.4124,96.4828 0.1944,96.4828 C0.0974,96.4828 0.0004,96.4338 0.0004,96.3358 C0.0004,96.1918 0.1214,96.1428 0.3884,96.1428 C1.4794,96.1428 3.0064,96.2148 3.1274,96.2148 C3.7084,96.2148 4.6544,96.1428 5.7694,96.1428 C9.7444,96.1428 10.6164,98.5668 10.6164,99.7778 C10.6164,101.7658 9.4774,102.9538 8.3384,104.1408 C10.1314,104.6998 12.5314,106.4198 12.5314,109.2558 C12.5314,111.8498 10.4954,114.5398 6.3504,114.5398 C5.7934,114.5398 3.3204,114.3948 3.1274,114.3948 C3.0064,114.3948 1.4794,114.4668 0.7524,114.4668 C0.4854,114.4668 0.3634,114.4188 0.3634,114.2738 C0.3634,114.1998 0.4124,114.1278 0.5574,114.1278 C0.7764,114.1278 1.0674,114.0788 1.2854,114.0298 C1.7694,113.9338 1.8904,113.4008 1.9874,112.6978 C2.1094,111.6798 2.1094,109.7638 2.1094,107.4378 L2.1094,103.1718 Z" id="Fill-25" fill="#231F20"></path>
        <path d="M20.6997,105.2796 C20.6997,105.4026 20.7477,105.4986 20.8697,105.5706 C21.2337,105.7896 22.3477,105.9596 23.4147,105.9596 C23.9957,105.9596 24.6757,105.8866 25.2327,105.4986 C26.0807,104.9166 26.7107,103.6076 26.7107,101.7656 C26.7107,98.7366 25.1117,96.9186 22.5177,96.9186 C21.7907,96.9186 21.1367,96.9906 20.8937,97.0626 C20.7727,97.1116 20.6997,97.2096 20.6997,97.3536 L20.6997,105.2796 Z M18.7607,103.1726 C18.7607,99.3906 18.7607,98.7116 18.7127,97.9356 C18.6637,97.1116 18.4697,96.7246 17.6697,96.5546 C17.4757,96.5066 17.0647,96.4826 16.8457,96.4826 C16.7487,96.4826 16.6517,96.4336 16.6517,96.3366 C16.6517,96.1916 16.7727,96.1426 17.0397,96.1426 C18.1307,96.1426 19.6577,96.2156 19.7787,96.2156 C20.0457,96.2156 21.8877,96.1426 22.6387,96.1426 C24.1657,96.1426 25.7897,96.2876 27.0747,97.2096 C27.6807,97.6446 28.7467,98.8326 28.7467,100.5066 C28.7467,102.2996 27.9957,104.0926 25.8137,106.1036 C27.8017,108.6486 29.4497,110.8066 30.8557,112.3086 C32.1647,113.6916 33.2067,113.9576 33.8127,114.0546 C34.2737,114.1276 34.6127,114.1276 34.7587,114.1276 C34.8797,114.1276 34.9757,114.1996 34.9757,114.2736 C34.9757,114.4186 34.8307,114.4676 34.3947,114.4676 L32.6737,114.4676 C31.3167,114.4676 30.7107,114.3456 30.0797,114.0066 C29.0377,113.4496 28.1897,112.2596 26.8077,110.4436 C25.7897,109.1096 24.6507,107.4866 24.1657,106.8556 C24.0687,106.7586 23.9957,106.7116 23.8507,106.7116 L20.8697,106.6626 C20.7477,106.6626 20.6997,106.7346 20.6997,106.8556 L20.6997,107.4376 C20.6997,109.7636 20.6997,111.6796 20.8207,112.6976 C20.8937,113.4006 21.0397,113.9336 21.7667,114.0296 C22.1057,114.0786 22.6387,114.1276 22.8577,114.1276 C23.0027,114.1276 23.0517,114.1996 23.0517,114.2736 C23.0517,114.3946 22.9297,114.4676 22.6627,114.4676 C21.3297,114.4676 19.8037,114.3946 19.6817,114.3946 C19.6577,114.3946 18.1307,114.4676 17.4037,114.4676 C17.1367,114.4676 17.0157,114.4186 17.0157,114.2736 C17.0157,114.1996 17.0647,114.1276 17.2097,114.1276 C17.4277,114.1276 17.7187,114.0786 17.9367,114.0296 C18.4217,113.9336 18.5427,113.4006 18.6397,112.6976 C18.7607,111.6796 18.7607,109.7636 18.7607,107.4376 L18.7607,103.1726 Z" id="Fill-27" fill="#231F20"></path>
        <path d="M39.0728,107.4378 C39.0728,109.7638 39.0728,111.6798 39.1938,112.6978 C39.2668,113.4008 39.4118,113.9338 40.1388,114.0298 C40.4788,114.0788 41.0118,114.1268 41.2298,114.1268 C41.3748,114.1268 41.4238,114.1998 41.4238,114.2738 C41.4238,114.3948 41.3018,114.4668 41.0358,114.4668 C39.7028,114.4668 38.1758,114.3948 38.0538,114.3948 C37.9328,114.3948 36.4058,114.4668 35.6788,114.4668 C35.4128,114.4668 35.2918,114.4178 35.2918,114.2738 C35.2918,114.1998 35.3398,114.1268 35.4858,114.1268 C35.7038,114.1268 35.9938,114.0788 36.2128,114.0298 C36.6978,113.9338 36.8188,113.4008 36.9158,112.6978 C37.0368,111.6798 37.0368,109.7638 37.0368,107.4378 L37.0368,103.1718 C37.0368,99.3908 37.0368,98.7108 36.9888,97.9358 C36.9398,97.1118 36.6978,96.6998 36.1638,96.5788 C35.8978,96.5058 35.5818,96.4828 35.4128,96.4828 C35.3158,96.4828 35.2188,96.4338 35.2188,96.3358 C35.2188,96.1918 35.3398,96.1428 35.6068,96.1428 C36.4058,96.1428 37.9328,96.2148 38.0538,96.2148 C38.1758,96.2148 39.7028,96.1428 40.4298,96.1428 C40.6968,96.1428 40.8178,96.1918 40.8178,96.3358 C40.8178,96.4338 40.7208,96.4828 40.6238,96.4828 C40.4538,96.4828 40.3088,96.5058 40.0178,96.5548 C39.3638,96.6758 39.1698,97.0878 39.1208,97.9358 C39.0728,98.7108 39.0728,99.3908 39.0728,103.1718 L39.0728,107.4378 Z" id="Fill-29" fill="#231F20"></path>
        <path d="M49.7373,105.7894 C49.7373,108.3574 49.7613,110.5884 49.7853,111.0494 C49.8093,111.6544 49.8583,112.6254 50.0523,112.8914 C50.3673,113.3514 51.3123,113.8614 54.1733,113.8614 C56.4263,113.8614 58.5113,113.0374 59.9413,111.6054 C61.2013,110.3714 61.8813,108.0434 61.8813,105.8124 C61.8813,102.7344 60.5473,100.7484 59.5533,99.7054 C57.2753,97.3054 54.5123,96.9674 51.6273,96.9674 C51.1433,96.9674 50.2463,97.0394 50.0523,97.1374 C49.8343,97.2324 49.7613,97.3534 49.7613,97.6214 C49.7373,98.4454 49.7373,100.9184 49.7373,102.7834 L49.7373,105.7894 Z M47.7013,103.1724 C47.7013,99.3914 47.7013,98.7114 47.6533,97.9354 C47.6043,97.1114 47.4103,96.7254 46.6103,96.5554 C46.4163,96.5064 46.0043,96.4824 45.7863,96.4824 C45.6893,96.4824 45.5923,96.4344 45.5923,96.3364 C45.5923,96.1914 45.7133,96.1434 45.9803,96.1434 C47.0703,96.1434 48.5983,96.2154 48.7193,96.2154 C49.0093,96.2154 50.5373,96.1434 51.9913,96.1434 C54.3913,96.1434 58.8263,95.9244 61.7113,98.9064 C62.9233,100.1664 64.0623,102.1784 64.0623,105.0624 C64.0623,108.1154 62.8013,110.4674 61.4443,111.8964 C60.4023,112.9884 58.2203,114.6844 54.1003,114.6844 C52.0153,114.6844 48.9613,114.3944 48.7193,114.3944 C48.5983,114.3944 47.0703,114.4674 46.3433,114.4674 C46.0773,114.4674 45.9563,114.4184 45.9563,114.2734 C45.9563,114.1994 46.0043,114.1274 46.1503,114.1274 C46.3683,114.1274 46.6593,114.0784 46.8773,114.0294 C47.3623,113.9344 47.4833,113.4004 47.5803,112.6974 C47.7013,111.6804 47.7013,109.7644 47.7013,107.4374 L47.7013,103.1724 Z" id="Fill-31" fill="#231F20"></path>
        <path d="M80.8365,108.2855 C80.8365,106.3225 80.7155,106.0565 79.7455,105.7895 C79.5515,105.7405 79.1395,105.7175 78.9215,105.7175 C78.8245,105.7175 78.7275,105.6685 78.7275,105.5705 C78.7275,105.4265 78.8485,105.3775 79.1155,105.3775 C80.2065,105.3775 81.7325,105.4495 81.8545,105.4495 C81.9755,105.4495 83.5025,105.3775 84.2305,105.3775 C84.4965,105.3775 84.6175,105.4265 84.6175,105.5705 C84.6175,105.6685 84.5205,105.7175 84.4235,105.7175 C84.2535,105.7175 84.1085,105.7405 83.8175,105.7895 C83.1635,105.9105 82.9695,106.3225 82.9205,107.1705 C82.8725,107.9475 82.8725,108.6745 82.8725,109.6915 L82.8725,112.4065 C82.8725,113.4965 82.8485,113.5455 82.5575,113.7155 C81.0055,114.5395 78.8245,114.8065 77.4195,114.8065 C75.5765,114.8065 72.1345,114.5625 69.4445,112.2135 C67.9655,110.9285 66.5605,108.3345 66.5605,105.3055 C66.5605,101.4265 68.4505,98.6875 70.6075,97.3305 C72.7895,95.9725 75.1895,95.8035 77.0555,95.8035 C78.5825,95.8035 80.3035,96.1175 80.7635,96.2155 C81.2725,96.3365 82.1215,96.4335 82.7275,96.4575 C82.9695,96.4825 83.0175,96.5785 83.0175,96.6765 C83.0175,97.0155 82.8485,97.6935 82.8485,100.1175 C82.8485,100.5065 82.7995,100.6275 82.6295,100.6275 C82.5085,100.6275 82.4845,100.4805 82.4605,100.2645 C82.4365,99.9245 82.3155,99.2445 81.9515,98.6625 C81.3455,97.7425 79.3815,96.6995 76.2555,96.6995 C74.7285,96.6995 72.9105,96.8465 71.0685,98.2995 C69.6625,99.4145 68.6695,101.6215 68.6695,104.4555 C68.6695,107.8735 70.3895,110.3465 71.2375,111.1705 C73.1525,113.0375 75.3585,113.7645 77.5885,113.7645 C78.4615,113.7645 79.7215,113.6175 80.3515,113.2545 C80.6665,113.0865 80.8365,112.8185 80.8365,112.4065 L80.8365,108.2855 Z" id="Fill-33" fill="#231F20"></path>
        <path d="M89.6123,103.1722 C89.6123,99.3912 89.6123,98.7112 89.5643,97.9362 C89.5153,97.1112 89.3213,96.7252 88.5213,96.5552 C88.3273,96.5062 87.9153,96.4832 87.6973,96.4832 C87.6003,96.4832 87.5033,96.4342 87.5033,96.3362 C87.5033,96.1922 87.6243,96.1432 87.8913,96.1432 C88.9823,96.1432 90.5083,96.2152 90.6303,96.2152 C90.7993,96.2152 95.6233,96.2152 96.1803,96.1922 C96.6413,96.1662 97.0293,96.1172 97.2223,96.0702 C97.3433,96.0452 97.4413,95.9492 97.5623,95.9492 C97.6343,95.9492 97.6593,96.0452 97.6593,96.1662 C97.6593,96.3362 97.5383,96.6272 97.4653,97.3052 C97.4413,97.5492 97.3923,98.6152 97.3433,98.9062 C97.3203,99.0272 97.2713,99.1722 97.1743,99.1722 C97.0293,99.1722 96.9803,99.0512 96.9803,98.8582 C96.9803,98.6882 96.9573,98.2762 96.8363,97.9852 C96.6663,97.5982 96.4233,97.3052 95.1143,97.1602 C94.7023,97.1112 92.0603,97.0882 91.7933,97.0882 C91.6973,97.0882 91.6483,97.1602 91.6483,97.3302 L91.6483,104.0202 C91.6483,104.1902 91.6723,104.2622 91.7933,104.2622 C92.1093,104.2622 95.0903,104.2622 95.6473,104.2132 C96.2283,104.1662 96.5683,104.1172 96.7873,103.8752 C96.9573,103.6802 97.0523,103.5592 97.1503,103.5592 C97.2223,103.5592 97.2713,103.6082 97.2713,103.7542 C97.2713,103.8992 97.1503,104.3112 97.0783,105.1092 C97.0293,105.5962 96.9803,106.4922 96.9803,106.6622 C96.9803,106.8562 96.9803,107.1232 96.8103,107.1232 C96.6893,107.1232 96.6413,107.0262 96.6413,106.9042 C96.6413,106.6622 96.6413,106.4202 96.5453,106.1042 C96.4473,105.7662 96.2283,105.3542 95.2843,105.2562 C94.6293,105.1842 92.2303,105.1352 91.8183,105.1352 C91.6973,105.1352 91.6483,105.2072 91.6483,105.3052 L91.6483,107.4382 C91.6483,108.2622 91.6243,111.0722 91.6483,111.5822 C91.7203,113.2542 92.0843,113.5702 94.4603,113.5702 C95.0903,113.5702 96.1563,113.5702 96.7873,113.3032 C97.4173,113.0372 97.7073,112.5512 97.8773,111.5592 C97.9253,111.2912 97.9743,111.1952 98.0953,111.1952 C98.2403,111.1952 98.2403,111.3892 98.2403,111.5592 C98.2403,111.7522 98.0473,113.4012 97.9253,113.9082 C97.7563,114.5392 97.5623,114.5392 96.6173,114.5392 C92.9573,114.5392 91.3333,114.3952 90.6303,114.3952 C90.5823,114.3952 90.1693,114.4182 89.6603,114.4182 C89.1753,114.4422 88.6183,114.4672 88.2553,114.4672 C87.9883,114.4672 87.8673,114.4182 87.8673,114.2742 C87.8673,114.1992 87.9153,114.1272 88.0613,114.1272 C88.2793,114.1272 88.5703,114.0782 88.7883,114.0292 C89.2733,113.9342 89.3943,113.4012 89.4913,112.6972 C89.6123,111.6802 89.6123,109.7642 89.6123,107.4382 L89.6123,103.1722 Z" id="Fill-35" fill="#231F20"></path>
        <g id="Group-39" transform="translate(100.000000, 95.807000)">
          <mask id="mask-2" fill="white">
            <use xlink:href="#path-1"></use>
          </mask>
          <g id="Clip-38"></g>
          <path d="M20.1465,15.3144 L20.2445,15.3144 C20.8985,13.0844 23.1285,6.0564 23.9765,2.9534 C24.2185,2.0564 24.2435,1.7164 24.2435,1.4024 C24.2435,0.9644 23.9765,0.6754 22.8615,0.6754 C22.7405,0.6754 22.6435,0.6014 22.6435,0.5054 C22.6435,0.3844 22.7645,0.3354 23.0555,0.3354 C24.2925,0.3354 25.3095,0.4084 25.5275,0.4084 C25.6975,0.4084 26.7405,0.3354 27.4915,0.3354 C27.7085,0.3354 27.8305,0.3844 27.8305,0.4804 C27.8305,0.6014 27.7575,0.6754 27.6125,0.6754 C27.5155,0.6754 27.0545,0.6994 26.7895,0.7964 C26.0615,1.0624 25.6735,2.0804 25.2125,3.4144 C24.1465,6.4924 21.6985,14.1994 20.7525,16.9144 C20.1235,18.7094 20.0015,19.0004 19.7345,19.0004 C19.4925,19.0004 19.3475,18.6834 19.0075,17.7384 L14.2565,4.2614 L14.2095,4.2614 C13.3355,6.5894 10.0155,15.4604 9.1425,17.7144 C8.7545,18.7324 8.6335,19.0004 8.3425,19.0004 C8.1005,19.0004 7.9795,18.7324 7.4945,17.0844 L3.1795,2.7104 C2.7925,1.4254 2.4765,1.0624 1.8475,0.8204 C1.5325,0.6994 0.9255,0.6754 0.7555,0.6754 C0.6345,0.6754 0.5385,0.6504 0.5385,0.5054 C0.5385,0.3844 0.6835,0.3354 0.9255,0.3354 C2.1865,0.3354 3.5195,0.4084 3.7865,0.4084 C4.0035,0.4084 5.0705,0.3354 6.2835,0.3354 C6.6225,0.3354 6.7185,0.4084 6.7185,0.5054 C6.7185,0.6504 6.5975,0.6754 6.4765,0.6754 C6.2835,0.6754 5.8225,0.6754 5.5315,0.8204 C5.3855,0.8924 5.2155,1.0874 5.2155,1.4024 C5.2155,1.7164 5.4345,2.5664 5.6765,3.6324 C6.0415,5.1834 8.5605,14.0784 8.9235,15.3634 L8.9725,15.3634 L14.1115,1.5464 C14.4755,0.5544 14.5725,0.4334 14.7175,0.4334 C14.8865,0.4334 15.0335,0.7484 15.3245,1.5724 L20.1465,15.3144 Z" id="Fill-37" fill="#231F20" mask="url(#mask-2)"></path>
        </g>
        <path d="M136.461,106.4437 C136.582,106.4437 136.582,106.3717 136.558,106.2737 L134.256,99.7307 C134.135,99.3657 134.014,99.3657 133.893,99.7307 L131.759,106.2737 C131.71,106.3947 131.759,106.4437 131.832,106.4437 L136.461,106.4437 Z M133.94,96.7487 C134.231,95.9497 134.328,95.8027 134.474,95.8027 C134.619,95.8027 134.716,95.9237 135.007,96.6757 C135.37,97.5977 139.176,107.6077 140.654,111.2917 C141.526,113.4497 142.23,113.8367 142.738,113.9827 C143.102,114.1037 143.466,114.1277 143.708,114.1277 C143.854,114.1277 143.951,114.1507 143.951,114.2737 C143.951,114.4187 143.732,114.4667 143.466,114.4667 C143.102,114.4667 141.333,114.4667 139.66,114.4187 C139.199,114.3947 138.933,114.3947 138.933,114.2487 C138.933,114.1507 139.006,114.1037 139.104,114.0787 C139.249,114.0297 139.394,113.8127 139.249,113.4237 L136.994,107.4617 C136.945,107.3657 136.897,107.3167 136.775,107.3167 L131.565,107.3167 C131.443,107.3167 131.371,107.3887 131.322,107.5097 L129.868,111.8007 C129.65,112.4067 129.528,112.9887 129.528,113.4237 C129.528,113.9087 130.038,114.1277 130.45,114.1277 L130.692,114.1277 C130.861,114.1277 130.935,114.1757 130.935,114.2737 C130.935,114.4187 130.789,114.4667 130.571,114.4667 C129.989,114.4667 128.947,114.3947 128.68,114.3947 C128.414,114.3947 127.08,114.4667 125.941,114.4667 C125.627,114.4667 125.481,114.4187 125.481,114.2737 C125.481,114.1757 125.578,114.1277 125.699,114.1277 C125.869,114.1277 126.208,114.1037 126.402,114.0787 C127.518,113.9337 128.002,113.0117 128.438,111.8007 L133.94,96.7487 Z" id="Fill-40" fill="#231F20"></path>
        <path d="M150.8867,107.4378 C150.8867,109.7638 150.8867,111.6798 151.0077,112.6978 C151.0807,113.4008 151.2267,113.9338 151.9537,114.0298 C152.2927,114.0788 152.8257,114.1268 153.0437,114.1268 C153.1897,114.1268 153.2387,114.1998 153.2387,114.2738 C153.2387,114.3948 153.1167,114.4668 152.8507,114.4668 C151.5177,114.4668 149.9907,114.3948 149.8687,114.3948 C149.7477,114.3948 148.2207,114.4668 147.4937,114.4668 C147.2267,114.4668 147.1057,114.4178 147.1057,114.2738 C147.1057,114.1998 147.1547,114.1268 147.2997,114.1268 C147.5187,114.1268 147.8087,114.0788 148.0277,114.0298 C148.5117,113.9338 148.6327,113.4008 148.7297,112.6978 C148.8517,111.6798 148.8517,109.7638 148.8517,107.4378 L148.8517,97.1838 L145.2637,97.2328 C143.7607,97.2578 143.1787,97.4278 142.7907,98.0078 C142.5247,98.4198 142.4517,98.5898 142.3787,98.7598 C142.3067,98.9538 142.2347,99.0018 142.1367,99.0018 C142.0647,99.0018 142.0157,98.9298 142.0157,98.7858 C142.0157,98.5418 142.4997,96.4578 142.5487,96.2638 C142.5977,96.1178 142.6947,95.8028 142.7907,95.8028 C142.9607,95.8028 143.2027,96.0448 143.8577,96.0938 C144.5607,96.1668 145.4817,96.2148 145.7727,96.2148 L154.8627,96.2148 C155.6377,96.2148 156.1957,96.1428 156.5827,96.0938 C156.9467,96.0218 157.1647,95.9728 157.2617,95.9728 C157.3827,95.9728 157.3827,96.1178 157.3827,96.2638 C157.3827,96.9908 157.3107,98.6628 157.3107,98.9298 C157.3107,99.1488 157.2377,99.2448 157.1407,99.2448 C157.0197,99.2448 156.9707,99.1718 156.9467,98.8328 L156.9227,98.5668 C156.8247,97.8398 156.2677,97.2818 153.9417,97.2328 L150.8867,97.1838 L150.8867,107.4378 Z" id="Fill-42" fill="#231F20"></path>
        <path d="M162.4727,103.1722 C162.4727,99.3912 162.4727,98.7112 162.4237,97.9362 C162.3757,97.1112 162.1817,96.7252 161.3817,96.5552 C161.1887,96.5062 160.7767,96.4832 160.5587,96.4832 C160.4607,96.4832 160.3647,96.4342 160.3647,96.3362 C160.3647,96.1922 160.4857,96.1432 160.7517,96.1432 C161.8427,96.1432 163.3697,96.2152 163.4917,96.2152 C163.6607,96.2152 168.4847,96.2152 169.0407,96.1922 C169.5017,96.1662 169.8897,96.1172 170.0837,96.0702 C170.2047,96.0452 170.3017,95.9492 170.4227,95.9492 C170.4947,95.9492 170.5197,96.0452 170.5197,96.1662 C170.5197,96.3362 170.3987,96.6272 170.3267,97.3052 C170.3017,97.5492 170.2527,98.6152 170.2047,98.9062 C170.1807,99.0272 170.1317,99.1722 170.0347,99.1722 C169.8897,99.1722 169.8407,99.0512 169.8407,98.8582 C169.8407,98.6882 169.8177,98.2762 169.6967,97.9852 C169.5267,97.5982 169.2847,97.3052 167.9757,97.1602 C167.5637,97.1112 164.9207,97.0882 164.6547,97.0882 C164.5577,97.0882 164.5087,97.1602 164.5087,97.3302 L164.5087,104.0202 C164.5087,104.1902 164.5337,104.2622 164.6547,104.2622 C164.9697,104.2622 167.9517,104.2622 168.5077,104.2132 C169.0897,104.1662 169.4297,104.1172 169.6477,103.8752 C169.8177,103.6802 169.9137,103.5592 170.0107,103.5592 C170.0837,103.5592 170.1317,103.6082 170.1317,103.7542 C170.1317,103.8992 170.0107,104.3112 169.9387,105.1092 C169.8897,105.5962 169.8407,106.4922 169.8407,106.6622 C169.8407,106.8562 169.8407,107.1232 169.6717,107.1232 C169.5507,107.1232 169.5017,107.0262 169.5017,106.9042 C169.5017,106.6622 169.5017,106.4202 169.4057,106.1042 C169.3077,105.7662 169.0897,105.3542 168.1447,105.2562 C167.4907,105.1842 165.0907,105.1352 164.6787,105.1352 C164.5577,105.1352 164.5087,105.2072 164.5087,105.3052 L164.5087,107.4382 C164.5087,108.2622 164.4847,111.0722 164.5087,111.5822 C164.5817,113.2542 164.9457,113.5702 167.3207,113.5702 C167.9517,113.5702 169.0177,113.5702 169.6477,113.3032 C170.2777,113.0372 170.5687,112.5512 170.7387,111.5592 C170.7867,111.2912 170.8347,111.1952 170.9557,111.1952 C171.1017,111.1952 171.1017,111.3892 171.1017,111.5592 C171.1017,111.7522 170.9087,113.4012 170.7867,113.9082 C170.6177,114.5392 170.4227,114.5392 169.4777,114.5392 C165.8177,114.5392 164.1947,114.3952 163.4917,114.3952 C163.4427,114.3952 163.0307,114.4182 162.5217,114.4182 C162.0357,114.4422 161.4797,114.4672 161.1157,114.4672 C160.8487,114.4672 160.7277,114.4182 160.7277,114.2742 C160.7277,114.1992 160.7767,114.1272 160.9217,114.1272 C161.1397,114.1272 161.4307,114.0782 161.6487,114.0292 C162.1337,113.9342 162.2547,113.4012 162.3517,112.6972 C162.4727,111.6802 162.4727,109.7642 162.4727,107.4382 L162.4727,103.1722 Z" id="Fill-44" fill="#231F20"></path>
        <path d="M179.1973,105.2796 C179.1973,105.4026 179.2463,105.4986 179.3673,105.5706 C179.7303,105.7896 180.8453,105.9596 181.9113,105.9596 C182.4943,105.9596 183.1723,105.8866 183.7293,105.4986 C184.5783,104.9166 185.2083,103.6076 185.2083,101.7656 C185.2083,98.7366 183.6083,96.9186 181.0143,96.9186 C180.2883,96.9186 179.6343,96.9906 179.3903,97.0626 C179.2693,97.1116 179.1973,97.2096 179.1973,97.3536 L179.1973,105.2796 Z M177.2583,103.1726 C177.2583,99.3906 177.2583,98.7116 177.2103,97.9356 C177.1613,97.1116 176.9673,96.7246 176.1673,96.5546 C175.9733,96.5066 175.5613,96.4826 175.3433,96.4826 C175.2463,96.4826 175.1493,96.4336 175.1493,96.3366 C175.1493,96.1916 175.2703,96.1426 175.5373,96.1426 C176.6283,96.1426 178.1543,96.2156 178.2753,96.2156 C178.5423,96.2156 180.3843,96.1426 181.1353,96.1426 C182.6633,96.1426 184.2873,96.2876 185.5713,97.2096 C186.1773,97.6446 187.2443,98.8326 187.2443,100.5066 C187.2443,102.2996 186.4923,104.0926 184.3113,106.1036 C186.2993,108.6486 187.9473,110.8066 189.3523,112.3086 C190.6623,113.6916 191.7043,113.9576 192.3093,114.0546 C192.7703,114.1276 193.1093,114.1276 193.2553,114.1276 C193.3763,114.1276 193.4733,114.1996 193.4733,114.2736 C193.4733,114.4186 193.3283,114.4676 192.8913,114.4676 L191.1713,114.4676 C189.8133,114.4676 189.2073,114.3456 188.5773,114.0066 C187.5353,113.4496 186.6863,112.2596 185.3043,110.4436 C184.2873,109.1096 183.1483,107.4866 182.6633,106.8556 C182.5663,106.7586 182.4943,106.7116 182.3473,106.7116 L179.3673,106.6626 C179.2463,106.6626 179.1973,106.7346 179.1973,106.8556 L179.1973,107.4376 C179.1973,109.7636 179.1973,111.6796 179.3183,112.6976 C179.3903,113.4006 179.5363,113.9336 180.2633,114.0296 C180.6023,114.0786 181.1353,114.1276 181.3543,114.1276 C181.5003,114.1276 181.5483,114.1996 181.5483,114.2736 C181.5483,114.3946 181.4263,114.4676 181.1603,114.4676 C179.8273,114.4676 178.3003,114.3946 178.1783,114.3946 C178.1543,114.3946 176.6283,114.4676 175.9003,114.4676 C175.6343,114.4676 175.5123,114.4186 175.5123,114.2736 C175.5123,114.1996 175.5613,114.1276 175.7073,114.1276 C175.9253,114.1276 176.2163,114.0786 176.4333,114.0296 C176.9193,113.9336 177.0403,113.4006 177.1363,112.6976 C177.2583,111.6796 177.2583,109.7636 177.2583,107.4376 L177.2583,103.1726 Z" id="Fill-46" fill="#231F20"></path>
        <path d="M205.3496,106.2738 C205.3496,108.1408 205.3496,111.1468 205.3746,111.5098 C205.4476,112.6978 205.4476,113.0378 206.1986,113.4008 C206.8536,113.7148 207.8956,113.7638 208.3306,113.7638 C209.6396,113.7638 211.7486,113.0608 211.7486,110.3228 C211.7486,108.8678 211.2646,106.7578 209.3986,105.4748 C208.5746,104.9168 207.9676,104.8438 207.3866,104.7718 C207.0716,104.7228 205.8596,104.7228 205.4956,104.7228 C205.3996,104.7228 205.3496,104.7718 205.3496,104.8928 L205.3496,106.2738 Z M205.3496,103.7058 C205.3496,103.8758 205.3996,103.9218 205.5206,103.9708 C205.6656,103.9968 206.1016,104.0688 206.9976,104.0688 C208.3556,104.0688 208.6956,104.0198 209.2036,103.4378 C209.7126,102.8558 210.0776,101.9848 210.0776,100.9908 C210.0776,98.9788 209.1796,96.8208 206.8046,96.8208 C206.5376,96.8208 206.0296,96.8458 205.6416,96.9418 C205.4226,96.9908 205.3496,97.0628 205.3496,97.2098 L205.3496,103.7058 Z M203.4116,103.1718 C203.4116,99.3908 203.4116,98.7118 203.3626,97.9358 C203.3146,97.1118 203.1206,96.7248 202.3206,96.5548 C202.1266,96.5058 201.7136,96.4828 201.4956,96.4828 C201.3996,96.4828 201.3016,96.4338 201.3016,96.3358 C201.3016,96.1918 201.4236,96.1428 201.6906,96.1428 C202.7816,96.1428 204.3076,96.2148 204.4286,96.2148 C205.0106,96.2148 205.9556,96.1428 207.0716,96.1428 C211.0456,96.1428 211.9186,98.5668 211.9186,99.7778 C211.9186,101.7658 210.7796,102.9538 209.6396,104.1408 C211.4336,104.6998 213.8336,106.4198 213.8336,109.2558 C213.8336,111.8498 211.7976,114.5398 207.6536,114.5398 C207.0956,114.5398 204.6226,114.3948 204.4286,114.3948 C204.3076,114.3948 202.7816,114.4668 202.0536,114.4668 C201.7866,114.4668 201.6656,114.4188 201.6656,114.2738 C201.6656,114.1998 201.7136,114.1278 201.8606,114.1278 C202.0786,114.1278 202.3696,114.0788 202.5866,114.0298 C203.0726,113.9338 203.1936,113.4008 203.2896,112.6978 C203.4116,111.6798 203.4116,109.7638 203.4116,107.4378 L203.4116,103.1718 Z" id="Fill-48" fill="#231F20"></path>
        <path d="M225.9561,106.4437 C226.0771,106.4437 226.0771,106.3717 226.0531,106.2737 L223.7501,99.7307 C223.6291,99.3657 223.5081,99.3657 223.3861,99.7307 L221.2541,106.2737 C221.2051,106.3947 221.2541,106.4437 221.3261,106.4437 L225.9561,106.4437 Z M223.4351,96.7487 C223.7261,95.9497 223.8221,95.8027 223.9691,95.8027 C224.1131,95.8027 224.2111,95.9237 224.5021,96.6757 C224.8651,97.5977 228.6711,107.6077 230.1481,111.2917 C231.0211,113.4497 231.7241,113.8367 232.2331,113.9827 C232.5971,114.1037 232.9611,114.1277 233.2031,114.1277 C233.3491,114.1277 233.4451,114.1507 233.4451,114.2737 C233.4451,114.4187 233.2271,114.4667 232.9611,114.4667 C232.5971,114.4667 230.8271,114.4667 229.1551,114.4187 C228.6941,114.3947 228.4281,114.3947 228.4281,114.2487 C228.4281,114.1507 228.5011,114.1037 228.5981,114.0787 C228.7431,114.0297 228.8891,113.8127 228.7431,113.4237 L226.4891,107.4617 C226.4401,107.3657 226.3921,107.3167 226.2701,107.3167 L221.0601,107.3167 C220.9381,107.3167 220.8661,107.3887 220.8171,107.5097 L219.3621,111.8007 C219.1441,112.4067 219.0231,112.9887 219.0231,113.4237 C219.0231,113.9087 219.5321,114.1277 219.9441,114.1277 L220.1871,114.1277 C220.3561,114.1277 220.4301,114.1757 220.4301,114.2737 C220.4301,114.4187 220.2831,114.4667 220.0661,114.4667 C219.4831,114.4667 218.4411,114.3947 218.1751,114.3947 C217.9081,114.3947 216.5751,114.4667 215.4361,114.4667 C215.1211,114.4667 214.9761,114.4187 214.9761,114.2737 C214.9761,114.1757 215.0721,114.1277 215.1931,114.1277 C215.3631,114.1277 215.7031,114.1037 215.8961,114.0787 C217.0121,113.9337 217.4961,113.0117 217.9331,111.8007 L223.4351,96.7487 Z" id="Fill-50" fill="#231F20"></path>
        <path d="M237.5655,111.1703 C237.6145,113.1583 237.8565,113.7873 238.5105,113.9833 C238.9715,114.1043 239.5045,114.1273 239.7235,114.1273 C239.8445,114.1273 239.9175,114.1763 239.9175,114.2743 C239.9175,114.4183 239.7715,114.4673 239.4805,114.4673 C238.0985,114.4673 237.1295,114.3953 236.9115,114.3953 C236.6935,114.3953 235.6755,114.4673 234.5845,114.4673 C234.3415,114.4673 234.1965,114.4413 234.1965,114.2743 C234.1965,114.1763 234.2695,114.1273 234.3905,114.1273 C234.5845,114.1273 235.0215,114.1043 235.3835,113.9833 C235.9905,113.8133 236.1115,113.1093 236.1115,110.9023 L236.1355,97.0163 C236.1355,96.0703 236.2095,95.8033 236.4025,95.8033 C236.5965,95.8033 237.0085,96.3363 237.2515,96.5783 C237.6145,96.9903 241.2255,100.8933 244.9595,104.8933 C247.3585,107.4613 250.0005,110.4183 250.7765,111.2193 L250.5095,98.9063 C250.4845,97.3303 250.3155,96.7973 249.5635,96.6043 C249.1285,96.5063 248.5705,96.4823 248.3765,96.4823 C248.2065,96.4823 248.1825,96.4083 248.1825,96.3133 C248.1825,96.1663 248.3765,96.1433 248.6675,96.1433 C249.7575,96.1433 250.9205,96.2153 251.1875,96.2153 C251.4545,96.2153 252.2535,96.1433 253.2485,96.1433 C253.5145,96.1433 253.6845,96.1663 253.6845,96.3133 C253.6845,96.4083 253.5865,96.4823 253.4185,96.4823 C253.2965,96.4823 253.1275,96.4823 252.8365,96.5553 C252.0365,96.7253 251.9395,97.2583 251.9395,98.7113 L251.8905,112.9163 C251.8905,114.5163 251.8425,114.6373 251.6725,114.6373 C251.4785,114.6373 251.1875,114.3693 249.9035,113.0863 C249.6365,112.8423 246.1465,109.2793 243.5765,106.5163 C240.7655,103.4863 238.0265,100.4323 237.2515,99.5613 L237.5655,111.1703 Z" id="Fill-52" fill="#231F20"></path>
        <path d="M259.0586,103.1722 C259.0586,99.3912 259.0586,98.7112 259.0096,97.9362 C258.9616,97.1112 258.7676,96.7252 257.9676,96.5552 C257.7746,96.5062 257.3616,96.4832 257.1436,96.4832 C257.0466,96.4832 256.9496,96.4342 256.9496,96.3362 C256.9496,96.1922 257.0706,96.1432 257.3366,96.1432 C258.4286,96.1432 259.8586,96.2152 260.0036,96.2152 C260.2216,96.2152 261.6266,96.1432 262.3546,96.1432 C262.6216,96.1432 262.7426,96.1922 262.7426,96.3362 C262.7426,96.4342 262.6456,96.4832 262.5486,96.4832 C262.3786,96.4832 262.2336,96.5062 261.9436,96.5552 C261.2876,96.6762 261.0936,97.0882 261.0456,97.9362 C260.9966,98.7112 260.9966,99.3912 260.9966,103.1722 L260.9966,104.6252 L261.0936,104.6252 C261.5056,104.1662 265.8936,99.7052 266.7666,98.7602 C267.4446,98.0572 268.0756,97.4282 268.0756,97.0162 C268.0756,96.7252 267.9546,96.5782 267.7596,96.5062 C267.6386,96.4572 267.5416,96.4082 267.5416,96.3132 C267.5416,96.1922 267.6626,96.1432 267.8316,96.1432 C268.3176,96.1432 269.0686,96.2152 269.6506,96.2152 C269.7716,96.2152 271.3716,96.1432 271.9776,96.1432 C272.2446,96.1432 272.3406,96.1922 272.3406,96.3132 C272.3406,96.4342 272.2916,96.4832 272.0986,96.4832 C271.7356,96.4832 271.2256,96.6042 270.7416,96.8202 C269.7476,97.2582 269.2146,97.8632 268.1226,98.9062 C267.5176,99.4862 263.2996,103.6082 262.7906,104.2132 C263.4206,104.9162 268.4626,110.1272 269.4566,111.0492 C271.4926,112.9402 271.9046,113.3282 273.0676,113.8132 C273.6986,114.0782 274.4016,114.1272 274.5716,114.1272 C274.7406,114.1272 274.8856,114.1762 274.8856,114.2742 C274.8856,114.3952 274.7646,114.4672 274.3526,114.4672 L273.1176,114.4672 C272.4376,114.4672 271.9776,114.4672 271.4446,114.4182 C270.1596,114.2972 269.5536,113.7642 268.5106,112.9402 C267.4206,112.0432 262.2826,106.4922 261.1186,105.0632 L260.9966,105.0632 L260.9966,107.4382 C260.9966,109.7642 260.9966,111.6802 261.1186,112.6972 C261.1916,113.4012 261.3366,113.9342 262.0646,114.0292 C262.4036,114.0782 262.7906,114.1272 263.0086,114.1272 C263.1546,114.1272 263.2036,114.1992 263.2036,114.2742 C263.2036,114.3952 263.0816,114.4672 262.8156,114.4672 C261.6266,114.4672 260.2216,114.3952 260.0276,114.3952 C259.8336,114.3952 258.4286,114.4672 257.7016,114.4672 C257.4346,114.4672 257.3136,114.4182 257.3136,114.2742 C257.3136,114.1992 257.3616,114.1272 257.5076,114.1272 C257.7246,114.1272 258.0166,114.0782 258.2346,114.0292 C258.7186,113.9342 258.8396,113.4012 258.9376,112.6972 C259.0586,111.6802 259.0586,109.7642 259.0586,107.4382 L259.0586,103.1722 Z" id="Fill-54" fill="#231F20"></path>
      </g>
    </g>
  </g>
</svg>
